<?xml version="1.0" encoding="UTF-8"?>
<svg id="Lager_1" data-name="Lager 1" xmlns="http://www.w3.org/2000/svg" viewBox="0 0 816.22 651.11">
  <defs>
    <style>
      .cls-1 {
        fill: #e6e6e6;
      }

      .cls-2 {
        fill: #fff;
      }

      .cls-3 {
        fill: #e5a1a1;
      }

      .cls-4 {
        fill: #ccc;
      }

      .cls-5 {
        fill: #db3535;
      }

      .cls-6 {
        fill: #3f3d56;
      }
    </style>
  </defs>
  <path class="cls-2" d="M769.62,647.78H46.6c-23.89-.03-43.25-19.39-43.27-43.27V46.6C3.36,22.71,22.71,3.36,46.6,3.33H769.62c23.89,.03,43.25,19.39,43.27,43.27V604.51c-.03,23.89-19.39,43.25-43.27,43.27Z"/>
  <path class="cls-1" d="M769.62,651.11H46.6c-25.73-.03-46.57-20.88-46.6-46.6V46.6C.03,20.88,20.88,.03,46.6,0H769.62c25.73,.03,46.57,20.88,46.6,46.6V604.51c-.03,25.73-20.88,46.57-46.6,46.6ZM46.6,7.99c-21.32,.02-38.59,17.3-38.61,38.61V604.51c.02,21.32,17.3,38.59,38.61,38.61H769.62c21.32-.02,38.59-17.3,38.61-38.61V46.6c-.02-21.32-17.3-38.59-38.61-38.61H46.6Z"/>
  <path class="cls-1" d="M520.63,186.8c-17.03-.01-33.08,7.97-43.34,21.55-18.13-7.8-39.15,.57-46.95,18.7-1.92,4.46-2.91,9.26-2.91,14.12h147.58c0-30.03-24.34-54.37-54.37-54.37h0Z"/>
  <circle class="cls-5" cx="197.33" cy="312.06" r="87.56"/>
  <path class="cls-3" d="M710.18,492.5c-3.21,.76-6.5,1.14-9.8,1.13H115.84c-7.2,.01-14.28-1.81-20.59-5.29l1.56-2.24,65.22-93.91,96.64-139.13,1.41-2.04,15.21-21.89c3.49-5.04,10.41-6.29,15.45-2.79,1.09,.76,2.04,1.7,2.79,2.79l50.52,72.71h0s29.72,42.81,29.72,42.81l70.94,102.13,107.6-153.59c3.52-5.03,10.45-6.25,15.48-2.74,1.06,.74,1.99,1.67,2.74,2.74l69.03,98.52,3.97,5.66,66.66,95.12Z"/>
  <path class="cls-4" d="M404.42,277.58c-21.01-.02-40.81,9.83-53.47,26.59-22.37-9.63-48.3,.7-57.93,23.07-2.37,5.5-3.59,11.43-3.59,17.42h182.08c0-37.05-30.03-67.08-67.08-67.08h0Z"/>
  <path class="cls-6" d="M700.38,494.97H115.84c-24.25,.02-43.92-19.61-43.94-43.86,0-.03,0-.05,0-.08V117.83c.03-24.26,19.68-43.91,43.94-43.94H700.38c24.26,.03,43.91,19.68,43.94,43.94V451.03c.03,24.24-19.6,43.91-43.84,43.94h-.1ZM115.84,76.55c-22.79,.03-41.25,18.49-41.28,41.28V451.03c-.02,22.78,18.42,41.26,41.2,41.28H700.38c22.77,.03,41.25-18.41,41.28-41.18V117.83c-.03-22.79-18.49-41.25-41.28-41.28H115.84Z"/>
</svg>